<svg width="664" height="970" viewBox="0 0 664 970" fill="none" xmlns="http://www.w3.org/2000/svg">
<path opacity="0.2" d="M319.372 0.92292C402.77 0.92292 468.642 20.8659 516.989 60.752C566.544 99.4293 591.322 155.632 591.322 229.361C591.322 277.708 579.84 323.637 556.875 367.149C535.119 409.452 506.111 450.547 469.851 490.433C433.591 529.11 394.914 567.183 353.819 604.652C312.724 640.912 272.838 677.172 234.161 713.432C195.484 748.483 162.85 784.139 136.259 820.399H504.298C553.853 820.399 585.279 813.751 598.574 800.456C611.869 785.952 620.934 761.779 625.769 727.936H656.59C656.59 791.995 657.194 841.551 658.403 876.602C659.612 910.445 661.425 941.266 663.842 969.065C652.964 966.648 633.021 964.835 604.013 963.626C575.005 962.417 541.767 961.209 504.298 960C466.829 960 429.965 960 393.705 960H-30.537V929.179C5.723 889.293 49.235 846.99 99.999 802.269C150.763 756.34 199.714 706.784 246.852 653.603C295.199 599.213 335.085 540.593 366.51 477.742C399.144 413.683 415.461 344.184 415.461 269.247C415.461 200.353 399.144 150.798 366.51 120.581C335.085 89.1556 290.968 73.443 234.161 73.443C185.814 73.443 141.094 87.947 99.999 116.955C58.9043 144.754 22.6443 187.058 -8.781 243.865L-37.789 227.548C-19.659 188.871 4.51434 152.611 34.731 118.768C66.1563 83.7166 104.834 55.3129 150.763 33.5569C197.901 11.8009 254.104 0.92292 319.372 0.92292Z" fill="#B3B3B3"/>
</svg>
