<svg xmlns="http://www.w3.org/2000/svg" width="54" height="30" viewBox="0 0 54 30" fill="none">
  <path d="M52.3 22.6823C53.2831 23.1859 53.6719 24.391 53.1684 25.3742C52.6649 26.3573 51.4597 26.7461 50.4766 26.2425L52.3 22.6823ZM31.8511 17.7629L32.3165 15.8178L31.8511 17.7629ZM0.75014 15.233C0.0539828 14.3754 0.184842 13.1159 1.04242 12.4197L15.0175 1.07522C15.8751 0.379067 17.1346 0.509926 17.8308 1.36751C18.5269 2.22509 18.3961 3.48464 17.5385 4.18079L5.11621 14.2648L15.2002 26.6871C15.8964 27.5446 15.7655 28.8042 14.9079 29.5004C14.0503 30.1965 12.7908 30.0656 12.0946 29.2081L0.75014 15.233ZM50.4766 26.2425C44.6736 23.2704 39.5701 21.6665 31.3856 19.708L32.3165 15.8178C40.6368 17.8089 46.0896 19.5015 52.3 22.6823L50.4766 26.2425ZM31.3856 19.708C19.0251 16.75 14.1038 17.2093 2.09625 15.9618L2.5096 11.9832C14.0888 13.1862 19.6169 12.7787 32.3165 15.8178L31.3856 19.708Z" fill="#378E15"/>
</svg>