<svg xmlns="http://www.w3.org/2000/svg" width="25" height="25" viewBox="0 0 25 25" fill="none">
  <path d="M6.17536 6.13534L6.84058 9.06189L6.17536 11.9757L8.65145 13.5535L10.1667 16.111L13 15.4239L15.8333 16.111L17.3486 13.5535L19.8246 11.9757L19.1594 9.06189L19.8246 6.13534L17.3609 4.55755L15.8333 2L13 2.69983L10.179 2.01272L8.63913 4.55755L6.17536 6.13534ZM13.0123 14.2024C11.7055 14.2024 10.4521 13.6662 9.52803 12.7117C8.60393 11.7572 8.08478 10.4626 8.08478 9.11278C8.08478 7.76292 8.60393 6.46835 9.52803 5.51386C10.4521 4.55936 11.7055 4.02313 13.0123 4.02313C15.7225 4.02313 17.9275 6.30075 17.9275 9.10006C17.9275 11.9248 15.7225 14.2024 13.0123 14.2024ZM12.9877 12.93C10.9428 12.93 9.30435 11.225 9.30435 9.11278C9.30435 7.0133 10.9428 5.29555 12.9877 5.29555C15.0326 5.29555 16.6957 7.0133 16.6957 9.11278C16.6957 11.225 15.0326 12.93 12.9877 12.93ZM17.7181 14.3297L16.1413 17.1799L13.579 16.5818L16.6957 24L18.4203 21.2007H21.5L17.7181 14.3297ZM8.23261 14.4187L9.77246 17.2817L12.3964 16.6327L9.30435 24L7.57971 21.2007H4.5L8.23261 14.4187Z" fill="black"/>
</svg>