<svg xmlns="http://www.w3.org/2000/svg" width="21" height="21" viewBox="0 0 21 21" fill="none">
  <path d="M18.4683 19.249L16.1688 10.2495C17.0189 9.18692 17.4794 7.86292 17.4728 6.49969C17.4728 4.90847 16.8435 3.38243 15.7234 2.25727C14.6033 1.13211 13.0841 0.5 11.5001 0.5C9.916 0.5 8.39681 1.13211 7.2767 2.25727C6.1566 3.38243 5.52733 4.90847 5.52733 6.49969C5.5246 7.87344 5.996 9.20566 6.86124 10.2695L4.53187 19.249C4.48233 19.441 4.4907 19.6433 4.55592 19.8305C4.62114 20.0176 4.74028 20.181 4.89818 20.3C5.05609 20.419 5.24563 20.4881 5.44274 20.4986C5.63984 20.5091 5.8356 20.4605 6.00515 20.359L11.3109 17.2291L16.9651 20.369C17.1179 20.4616 17.2945 20.5068 17.4728 20.499C17.6274 20.5039 17.781 20.4726 17.9214 20.4076C18.0618 20.3425 18.1853 20.2455 18.2819 20.1242C18.3785 20.0029 18.4456 19.8606 18.478 19.7087C18.5103 19.5568 18.507 19.3994 18.4683 19.249ZM11.5001 2.4999C12.2876 2.4999 13.0574 2.73448 13.7122 3.17398C14.3671 3.61349 14.8774 4.23817 15.1788 4.96904C15.4802 5.6999 15.559 6.50413 15.4054 7.28001C15.2517 8.0559 14.8725 8.76859 14.3156 9.32797C13.7588 9.88736 13.0493 10.2683 12.2769 10.4226C11.5045 10.577 10.7039 10.4978 9.97629 10.195C9.2487 9.89229 8.62683 9.37962 8.1893 8.72186C7.75177 8.0641 7.51824 7.29078 7.51824 6.49969C7.51824 5.43888 7.93775 4.42152 8.68449 3.67141C9.43123 2.9213 10.444 2.4999 11.5001 2.4999Z" fill="black"/>
</svg>