<svg width="2500" height="383" viewBox="0 0 2500 383" fill="none" xmlns="http://www.w3.org/2000/svg">
    <path fill-rule="evenodd" clip-rule="evenodd" d="M-256.2 335.2H-193.5C-194.2 331 -194.6 326.7 -194.6 322.4C-194.6 277.9 -155.6 241.8 -107.4 241.8C-89.6 241.8 -73.1 246.7 -59.3 255.2C-53.2 234.2 -32.4 218.8 -7.79996 218.8C0.200043 218.8 7.80004 220.4 14.6 223.3C31.5 160.3 93.2 113.5 166.6 113.5C220.5 113.5 268.1 138.7 296.3 177C312.1 161.2 334.7 151.3 359.8 151.3C384.7 151.3 407.1 161 422.9 176.6C436.1 77.1 527.9 0 639.3 0C759.7 0 857.3 90.2 857.3 201.4C857.3 205.8 857.2 210.1 856.8 214.4L857.5 214.3C860.4 179.9 891.4 152.9 929.4 152.9C969.2 152.9 1001.5 182.7 1001.5 219.5C1001.5 223.9 1001 228.2 1000.2 232.3C1004.8 230.9 1009.8 230.1 1014.9 230.1C1041 230.1 1062.1 249.6 1062.1 273.7C1062.1 278 1061.4 282.1 1060.2 286H1161.8C1160.6 282.4 1160 278.5 1160 274.5C1160 255.8 1173.5 240 1192.1 235C1193 204.9 1219.8 180.8 1252.6 180.8C1266.2 180.8 1278.8 185 1288.9 192C1307.7 170.1 1336.6 156.1 1369.2 156.1C1372.8 156.1 1376.4 156.3 1379.9 156.6C1406.3 80.9 1483.2 26.2 1573.9 26.2C1664.4 26.2 1741.1 80.7 1767.7 156.1C1771.5 155.5 1775.5 155.2 1779.5 155.2C1813.1 155.2 1841.5 175.6 1850.9 203.8C1857.9 202.2 1865.3 201.3 1872.9 201.3C1915.2 201.3 1950.6 228.3 1960.2 264.6H1962.8V266.6C1968.5 265.3 1974.5 264.6 1980.6 264.6C2021.9 264.6 2055.4 295.5 2055.4 333.7C2055.4 334.2 2055.4 334.6 2055.4 335H2117C2137.2 335 2153.7 350.2 2153.7 368.9C2153.7 387.5 2137.2 402.8 2117 402.8H1980.7H1962.9H1776.8H-107.2H-256C-276.2 402.8 -292.7 387.6 -292.7 368.9C-292.9 350.4 -276.4 335.2 -256.2 335.2Z" fill="#D7E5F5"/>
    <path fill-rule="evenodd" clip-rule="evenodd" d="M1181.6 330.7C1165.2 335.1 1153.3 349 1153.3 365.6C1153.3 369.1 1153.9 372.5 1154.9 375.8H1065.2C1066.3 372.3 1066.9 368.7 1066.9 364.9C1066.9 343.7 1048.3 326.4 1025.3 326.4C1020.8 326.4 1016.4 327.1 1012.3 328.3C1013.1 324.6 1013.5 320.8 1013.5 317C1013.5 284.5 985 258.2 949.9 258.2C916.4 258.2 889 282.1 886.4 312.4L885.8 312.5C886.1 308.7 886.2 304.9 886.2 301C886.2 267.7 876.3 236.5 859 209.9C858.4 212.6 858 215.4 857.7 218.2L857 218.3C857.2 214.8 857.4 211.2 857.4 207.6C823.5 156.9 762.8 123.2 693.6 123.2C595.3 123.2 514.3 191.2 502.6 279.1C488.7 265.4 468.9 256.8 446.9 256.8C424.7 256.8 404.8 265.5 390.9 279.5C366 245.7 324 223.4 276.4 223.4C211.5 223.4 157.1 264.7 142.2 320.3C136.2 317.7 129.5 316.3 122.4 316.3C100.6 316.3 82.3 329.9 76.9 348.4C64.7 340.9 50.1 336.6 34.4 336.6C-7.79998 336.6 -42 367.9 -42.6 406.7H702.3C711.4 406.7 718.8 413.5 718.8 421.9C718.8 430.3 693.5 437.1 702.3 437.1H656.7C639.4 437.1 625.3 450.1 625.3 466.1C625.3 482 639.4 495.1 656.7 495.1H1789.9C1807.2 495.1 1821.3 482.1 1821.3 466.1C1821.3 450.2 1807.2 437.1 1789.9 437.1H1725.7C1716.6 437.1 1709.2 430.3 1709.2 421.9C1709.2 413.5 1736.6 406.7 1725.7 406.7H1776.7H1942.5C1936.8 378.4 1909.9 356.9 1877.6 356.9C1872.2 356.9 1866.9 357.5 1861.9 358.6V356.9H1859.6C1851.1 324.8 1819.8 301 1782.5 301C1775.8 301 1769.3 301.8 1763 303.2C1754.7 278.4 1729.6 260.3 1700 260.3C1696.5 260.3 1693 260.6 1689.6 261.1C1666.1 194.5 1598.4 146.4 1518.5 146.4C1438.4 146.4 1370.6 194.7 1347.3 261.5C1344.2 261.2 1341 261 1337.8 261C1309.1 261 1283.5 273.4 1267 292.7C1258.1 286.5 1247 282.8 1234.9 282.8C1206 282.8 1182.4 304.1 1181.6 330.7ZM555.3 437.1C572.6 437.1 586.7 450.1 586.7 466.1C586.7 482 572.6 495.1 555.3 495.1H554.4C537.1 495.1 523 482.1 523 466.1C523 450.2 537.1 437.1 554.4 437.1H555.3Z" fill="white"/>
</svg>
