<svg xmlns="http://www.w3.org/2000/svg" width="56" height="56" viewBox="0 0 56 56" fill="none">
  <rect x="4" y="4" width="48" height="48" rx="24" fill="#4FCB1F"/>
  <path d="M41 27.0036L37.369 25.6737C37.0595 24.3203 36.2857 23.5436 36.2857 23.5436C35.8225 23.0847 35.2723 22.7207 34.6666 22.4723C34.061 22.224 33.4117 22.0961 32.756 22.0961C32.1002 22.0961 31.4509 22.224 30.8453 22.4723C30.2396 22.7207 29.6894 23.0847 29.2262 23.5436L27.4643 25.2854L19.5714 17C18.381 21.7076 19.5714 26.4152 22.4881 30.2048L16 36.4188C16 36.4188 26.5833 38.7726 32.75 34.0062C36.0357 31.4641 36.7738 29.9812 37.2381 28.4159L41 27.0036ZM34.7024 27.2626C34.2381 27.7216 33.4762 27.7216 33.0119 27.2626C32.9015 27.1537 32.814 27.0244 32.7542 26.882C32.6945 26.7396 32.6638 26.587 32.6638 26.4328C32.6638 26.2787 32.6945 26.1261 32.7542 25.9837C32.814 25.8413 32.9015 25.712 33.0119 25.6031C33.4762 25.1441 34.2381 25.1441 34.7024 25.6031C35.1667 26.0621 35.1667 26.8036 34.7024 27.2626Z" fill="white"/>
  <rect x="4" y="4" width="48" height="48" rx="24" stroke="#86E760" stroke-width="8"/>
</svg>