<svg xmlns="http://www.w3.org/2000/svg" width="25" height="24" viewBox="0 0 25 24" fill="none">
  <path fill-rule="evenodd" clip-rule="evenodd" d="M15.115 2.09486C15.2614 2.17635 15.3763 2.30454 15.4413 2.45896C15.5064 2.61338 15.5179 2.78515 15.474 2.94686L13.482 10.2499H20.75C20.8961 10.2499 21.0391 10.2926 21.1613 10.3728C21.2835 10.4529 21.3796 10.5671 21.4378 10.7011C21.4961 10.8352 21.5138 10.9834 21.489 11.1274C21.4641 11.2714 21.3977 11.4051 21.298 11.5119L10.798 22.7619C10.6836 22.8847 10.5313 22.9656 10.3656 22.9916C10.1998 23.0177 10.0301 22.9874 9.88357 22.9056C9.73704 22.8238 9.62218 22.6952 9.55735 22.5405C9.49252 22.3857 9.48146 22.2137 9.52595 22.0519L11.518 14.7499H4.24995C4.10379 14.7498 3.96082 14.7071 3.83861 14.627C3.7164 14.5468 3.62028 14.4327 3.56206 14.2986C3.50384 14.1645 3.48607 14.0164 3.51092 13.8723C3.53578 13.7283 3.60217 13.5947 3.70195 13.4879L14.202 2.23786C14.3163 2.1155 14.4683 2.03495 14.6338 2.00903C14.7993 1.98312 14.9687 2.01333 15.115 2.09486Z" fill="black"/>
</svg>