<svg xmlns="http://www.w3.org/2000/svg" width="56" height="56" viewBox="0 0 56 56" fill="none">
  <rect x="4" y="4" width="48" height="48" rx="24" fill="#4FCB1F"/>
  <path d="M33.75 30.9998H22.2625C22.125 30.9998 22.0125 31.1123 22.0125 31.2498L22.0094 32.7498C22.0094 32.8873 22.1219 32.9999 22.2594 32.9999H33.75C33.8875 32.9999 34 32.8873 34 32.7498V31.2498C34 31.1123 33.8875 30.9998 33.75 30.9998ZM33.75 33.9999H22.2531C22.1156 33.9999 22.0031 34.1124 22.0031 34.2499L22 35.75C22 35.8875 22.1125 36 22.25 36H33.75C33.8875 36 34 35.8875 34 35.75V34.2499C34 34.1124 33.8875 33.9999 33.75 33.9999ZM33.75 27.9996H22.2688C22.1313 27.9996 22.0188 28.1121 22.0188 28.2496L22.0156 29.7497C22.0156 29.8872 22.1281 29.9997 22.2656 29.9997H33.75C33.8875 29.9997 34 29.8872 34 29.7497V28.2496C34 28.1121 33.8875 27.9996 33.75 27.9996ZM37.0781 23.6556L28.575 20.1149C28.3922 20.039 28.1963 20 27.9984 20C27.8006 20 27.6046 20.039 27.4219 20.1149L18.9219 23.6556C18.3656 23.89 18 24.4338 18 25.0401V35.75C18 35.8875 18.1125 36 18.25 36H20.75C20.8875 36 21 35.8875 21 35.75V27.9996C21 27.4496 21.4563 26.9996 22.0188 26.9996H33.9812C34.5438 26.9996 35 27.4496 35 27.9996V35.75C35 35.8875 35.1125 36 35.25 36H37.75C37.8875 36 38 35.8875 38 35.75V25.0401C38 24.4338 37.6344 23.89 37.0781 23.6556Z" fill="white"/>
  <rect x="4" y="4" width="48" height="48" rx="24" stroke="#86E760" stroke-width="8"/>
</svg>