<svg xmlns="http://www.w3.org/2000/svg" width="25" height="24" viewBox="0 0 25 24" fill="none">
  <path d="M6.5005 21.5C6.32872 21.4995 6.15998 21.4547 6.01054 21.37C5.85608 21.2832 5.72747 21.1569 5.63787 21.004C5.54826 20.8511 5.50089 20.6772 5.50058 20.5V5.83C5.48706 5.23032 5.71039 4.64946 6.12216 4.21332C6.53393 3.77718 7.10098 3.52089 7.7004 3.5H17.2996C17.899 3.52089 18.4661 3.77718 18.8778 4.21332C19.2896 4.64946 19.5129 5.23032 19.4994 5.83V20.5C19.4984 20.6745 19.4517 20.8457 19.364 20.9966C19.2762 21.1475 19.1506 21.2727 18.9995 21.36C18.8475 21.4478 18.675 21.494 18.4995 21.494C18.324 21.494 18.1516 21.4478 17.9995 21.36L12.33 18.15L7.00046 21.35C6.85002 21.4434 6.67749 21.4951 6.5005 21.5Z" fill="black"/>
</svg>