<svg xmlns="http://www.w3.org/2000/svg" width="48" height="48" viewBox="0 0 48 48" fill="none">
  <rect x="4" y="4" width="40" height="40" rx="20" fill="#4FCB1F"/>
  <path fill-rule="evenodd" clip-rule="evenodd" d="M26.2093 14.6741C26.2093 14.609 26.1835 14.5466 26.1375 14.5006C26.0914 14.4546 26.029 14.4287 25.9639 14.4287H19.0922C18.3762 14.4287 17.6896 14.7131 17.1833 15.2194C16.677 15.7257 16.3926 16.4123 16.3926 17.1283V30.8718C16.3926 31.5878 16.677 32.2744 17.1833 32.7807C17.6896 33.287 18.3762 33.5714 19.0922 33.5714H28.909C29.6249 33.5714 30.3116 33.287 30.8179 32.7807C31.3241 32.2744 31.6086 31.5878 31.6086 30.8718V21.1993C31.6086 21.1342 31.5827 21.0718 31.5367 21.0258C31.4907 20.9798 31.4282 20.9539 31.3632 20.9539H26.9456C26.7503 20.9539 26.5631 20.8763 26.425 20.7383C26.2869 20.6002 26.2093 20.4129 26.2093 20.2177V14.6741ZM26.9456 24.2455C27.1409 24.2455 27.3281 24.3231 27.4662 24.4611C27.6043 24.5992 27.6819 24.7865 27.6819 24.9817C27.6819 25.177 27.6043 25.3643 27.4662 25.5024C27.3281 25.6404 27.1409 25.718 26.9456 25.718H21.0555C20.8603 25.718 20.673 25.6404 20.5349 25.5024C20.3969 25.3643 20.3193 25.177 20.3193 24.9817C20.3193 24.7865 20.3969 24.5992 20.5349 24.4611C20.673 24.3231 20.8603 24.2455 21.0555 24.2455H26.9456ZM26.9456 28.1722C27.1409 28.1722 27.3281 28.2498 27.4662 28.3878C27.6043 28.5259 27.6819 28.7132 27.6819 28.9084C27.6819 29.1037 27.6043 29.291 27.4662 29.4291C27.3281 29.5671 27.1409 29.6447 26.9456 29.6447H21.0555C20.8603 29.6447 20.673 29.5671 20.5349 29.4291C20.3969 29.291 20.3193 29.1037 20.3193 28.9084C20.3193 28.7132 20.3969 28.5259 20.5349 28.3878C20.673 28.2498 20.8603 28.1722 21.0555 28.1722H26.9456Z" fill="white"/>
  <rect x="4" y="4" width="40" height="40" rx="20" stroke="#86E760" stroke-width="8"/>
</svg>