<svg xmlns="http://www.w3.org/2000/svg" width="20" height="17" viewBox="0 0 20 17" fill="none">
  <g clip-path="url(#clip0_107_11849)">
    <path fill-rule="evenodd" clip-rule="evenodd" d="M12.2093 -1.32587C12.2093 -1.39096 12.1835 -1.45338 12.1375 -1.49941C12.0914 -1.54543 12.029 -1.57129 11.9639 -1.57129H5.09219C4.37621 -1.57129 3.68955 -1.28687 3.18328 -0.780591C2.677 -0.274316 2.39258 0.412341 2.39258 1.12832V14.8718C2.39258 15.5878 2.677 16.2744 3.18328 16.7807C3.68955 17.287 4.37621 17.5714 5.09219 17.5714H14.909C15.6249 17.5714 16.3116 17.287 16.8179 16.7807C17.3241 16.2744 17.6086 15.5878 17.6086 14.8718V5.19934C17.6086 5.13425 17.5827 5.07182 17.5367 5.0258C17.4907 4.97977 17.4282 4.95392 17.3632 4.95392H12.9456C12.7503 4.95392 12.5631 4.87635 12.425 4.73827C12.2869 4.6002 12.2093 4.41293 12.2093 4.21766V-1.32587ZM12.9456 8.24548C13.1409 8.24548 13.3281 8.32305 13.4662 8.46113C13.6043 8.5992 13.6819 8.78647 13.6819 8.98174C13.6819 9.17701 13.6043 9.36427 13.4662 9.50235C13.3281 9.64043 13.1409 9.718 12.9456 9.718H7.05554C6.86028 9.718 6.67301 9.64043 6.53493 9.50235C6.39686 9.36427 6.31929 9.17701 6.31929 8.98174C6.31929 8.78647 6.39686 8.5992 6.53493 8.46113C6.67301 8.32305 6.86028 8.24548 7.05554 8.24548H12.9456ZM12.9456 12.1722C13.1409 12.1722 13.3281 12.2498 13.4662 12.3878C13.6043 12.5259 13.6819 12.7132 13.6819 12.9084C13.6819 13.1037 13.6043 13.291 13.4662 13.4291C13.3281 13.5671 13.1409 13.6447 12.9456 13.6447H7.05554C6.86028 13.6447 6.67301 13.5671 6.53493 13.4291C6.39686 13.291 6.31929 13.1037 6.31929 12.9084C6.31929 12.7132 6.39686 12.5259 6.53493 12.3878C6.67301 12.2498 6.86028 12.1722 7.05554 12.1722H12.9456Z" fill="white"/>
  </g>
  <defs>
    <clipPath id="clip0_107_11849">
      <rect width="20" height="17" fill="white"/>
    </clipPath>
  </defs>
</svg>