<svg xmlns="http://www.w3.org/2000/svg" width="24" height="23" viewBox="0 0 24 23" fill="none">
  <path d="M10.3 6.5C10.3 4.7 11.2067 3.125 12.5667 2H11.4333C7.01333 2 3.5 3.0125 3.5 4.25C3.5 5.375 6.44667 6.275 10.3 6.5ZM14.6067 11.9C13.5867 12.0125 12.4533 12.125 11.4333 12.125C7.01333 12.125 3.5 11.1125 3.5 9.875V13.25C3.5 14.4875 7.01333 15.5 11.4333 15.5C15.8533 15.5 19.3667 14.4875 19.3667 13.25V11C18.3467 11.7875 17.2133 12.125 15.9667 12.125C15.5133 12.125 15.06 12.0125 14.6067 11.9ZM11.4333 16.625C7.01333 16.625 3.5 15.6125 3.5 14.375V17.75C3.5 18.9875 7.01333 20 11.4333 20C15.8533 20 19.3667 18.9875 19.3667 17.75V14.375C19.3667 15.6125 15.8533 16.625 11.4333 16.625ZM11.4333 11H12.5667C11.4333 10.2125 10.64 8.975 10.4133 7.625C6.56 7.5125 3.5 6.5 3.5 5.375V8.75C3.5 9.9875 7.01333 11 11.4333 11ZM15.9667 11C18.46 11 20.5 8.975 20.5 6.5C20.5 4.025 18.46 2 15.9667 2C13.4733 2 11.4333 4.025 11.4333 6.5C11.4333 8.975 13.4733 11 15.9667 11ZM13.36 6.05L15.2867 7.9625L18.5733 4.7L19.3667 5.4875L15.2867 9.5375L12.5667 6.8375L13.36 6.05Z" fill="black"/>
</svg>