<svg xmlns="http://www.w3.org/2000/svg" width="56" height="56" viewBox="0 0 56 56" fill="none">
  <rect x="4" y="4" width="48" height="48" rx="24" fill="#4FCB1F"/>
  <path d="M28 16C28.5304 16 29.0391 16.2107 29.4142 16.5858C29.7893 16.9609 30 17.4696 30 18C30 18.74 29.6 19.39 29 19.73V21H30C31.8565 21 33.637 21.7375 34.9497 23.0503C36.2625 24.363 37 26.1435 37 28H38C38.2652 28 38.5196 28.1054 38.7071 28.2929C38.8946 28.4804 39 28.7348 39 29V32C39 32.2652 38.8946 32.5196 38.7071 32.7071C38.5196 32.8946 38.2652 33 38 33H37V34C37 34.5304 36.7893 35.0391 36.4142 35.4142C36.0391 35.7893 35.5304 36 35 36H21C20.4696 36 19.9609 35.7893 19.5858 35.4142C19.2107 35.0391 19 34.5304 19 34V33H18C17.7348 33 17.4804 32.8946 17.2929 32.7071C17.1054 32.5196 17 32.2652 17 32V29C17 28.7348 17.1054 28.4804 17.2929 28.2929C17.4804 28.1054 17.7348 28 18 28H19C19 26.1435 19.7375 24.363 21.0503 23.0503C22.363 21.7375 24.1435 21 26 21H27V19.73C26.4 19.39 26 18.74 26 18C26 17.4696 26.2107 16.9609 26.5858 16.5858C26.9609 16.2107 27.4696 16 28 16ZM23.5 27C22.837 27 22.2011 27.2634 21.7322 27.7322C21.2634 28.2011 21 28.837 21 29.5C21 30.163 21.2634 30.7989 21.7322 31.2678C22.2011 31.7366 22.837 32 23.5 32C24.163 32 24.7989 31.7366 25.2678 31.2678C25.7366 30.7989 26 30.163 26 29.5C26 28.837 25.7366 28.2011 25.2678 27.7322C24.7989 27.2634 24.163 27 23.5 27ZM32.5 27C31.837 27 31.2011 27.2634 30.7322 27.7322C30.2634 28.2011 30 28.837 30 29.5C30 30.163 30.2634 30.7989 30.7322 31.2678C31.2011 31.7366 31.837 32 32.5 32C33.163 32 33.7989 31.7366 34.2678 31.2678C34.7366 30.7989 35 30.163 35 29.5C35 28.837 34.7366 28.2011 34.2678 27.7322C33.7989 27.2634 33.163 27 32.5 27Z" fill="white"/>
  <rect x="4" y="4" width="48" height="48" rx="24" stroke="#86E760" stroke-width="8"/>
</svg>