<?xml version="1.0" encoding="UTF-8"?>
<svg id="Livello_2" data-name="Livello 2" xmlns="http://www.w3.org/2000/svg" viewBox="0 0 401.03 116.85">
  <defs>
    <style>
      .cls-1 {
        fill: #a6cacc;
      }
    </style>
  </defs>
  <g id="_ÎÓÈ_1" data-name="—ÎÓÈ_1">
    <g>
      <path class="cls-1" d="m.03,110.79s.04-.04.06-.06c.06-.06.16,0,.14.08-.04.2,4.12.21,5.4.21h0c4.87-2.01,10.18-1.71,14.98-4.02,1.63-.78,4.25-1.93,6.1-1.93.8,0,1.52.19,2.22.46.83-.07,1.7-.06,2.5.1.56-.13,1.13-.23,1.69-.26.33-.43.69-.81.98-1.02,1.1-.82,2.41-1.24,3.75-1.15.93-1.91,1.5-3.58,2.99-5.2,2.38-2.59,5.58-3.69,8.42-5.58,3-2,5.53-5,8.14-7.49,1.21-1.16,2.4-2.42,3.41-3.75.49-.64.99-1.56,1.71-1.93.02,0,.04-.01.05,0,.02.02.04.04.05.07,0,0,0,.02,0,.02.31.03-3.33,4.88-3.58,5.15-2.28,2.43-4.39,4.96-6.65,7.4-2.18,2.35-4.76,4.65-7.3,6.62-2.07,1.61-3.52,3.78-5.17,5.76.03,1.88,1.36,3.37.9,5.34-.08.35-.24.66-.58.79-1.48.58-2.28,2.19-3.35,3.34-2.14,2.3-6.69,3.71-9.76,2.87-.47-.13-.41-.81.08-.84,1.97-.12,3.78-1.19,4.92-2.8.4-.57.63-1.12.74-1.67.02-.31.03-.63.03-.93-1.22.28-2.44.52-3.66.84-3.15.82-6.46.39-9.56,1.3-2.88.84-5.93.5-8.86.21-2.19-.22-4.36-.61-6.56-.69-1.47-.05-3.07-.15-4.24-1.06-.05-.04-.04-.12,0-.16Z"/>
      <path class="cls-1" d="m395.57,109.09s-.05-.05-.07-.07c-.07-.07-.19,0-.17.09.04.24-4.9.25-6.42.26h0c-5.79-2.39-12.11-2.04-17.81-4.78-1.93-.93-5.05-2.3-7.25-2.3-.95,0-1.81.23-2.64.55-.98-.08-2.02-.07-2.97.12-.66-.15-1.34-.27-2.01-.31-.39-.52-.82-.96-1.16-1.22-1.31-.98-2.87-1.47-4.46-1.36-1.11-2.27-1.79-4.26-3.55-6.18-2.83-3.07-6.63-4.39-10.01-6.64-3.57-2.38-6.57-5.94-9.67-8.91-1.44-1.38-2.85-2.87-4.05-4.46-.58-.77-1.17-1.86-2.03-2.29-.02-.01-.05-.01-.06,0-.02.03-.05.05-.06.08,0,.01,0,.02.01.02-.37.04,3.96,5.81,4.26,6.12,2.7,2.89,5.22,5.89,7.9,8.79,2.59,2.8,5.66,5.52,8.68,7.87,2.46,1.91,4.19,4.5,6.14,6.85-.04,2.23-1.62,4-1.08,6.35.1.41.28.79.69.94,1.76.69,2.71,2.6,3.98,3.96,2.55,2.74,7.95,4.41,11.6,3.42.55-.15.48-.97-.1-1-2.35-.14-4.49-1.41-5.85-3.33-.48-.67-.74-1.33-.88-1.99-.03-.37-.04-.74-.04-1.1,1.45.33,2.9.62,4.35,1,3.74.98,7.69.47,11.37,1.54,3.43,1,7.05.6,10.53.24,2.61-.26,5.18-.73,7.8-.82,1.75-.06,3.64-.18,5.04-1.26.06-.04.05-.14,0-.19Z"/>
      <path class="cls-1" d="m185.76,85.97c-7.74,1.69-17.51,6.86-21.51,11.52-2.23,2.61-3.88,4.81-6.72,6.3-2.13-3.62-4.35-8.01-7.61-6.82-1.71.63-1.84,3.08.86,5.39,1.11.95,2.21,1.81,3.2,2.74-1.69.41-3.72.67-6.23.75-10.39.33-24.4,8.09-24.4,8.09,3.77-1.39,19.98-3.4,26.51-1.86,3.21.76,5.74,1.14,8,.6.06,1.23-.24,1.99-.45,2.45,3.19,1.18,6.77-.65,8.55-4.52,0,0-1.39-.26-3.1-1.18,1.27-1.43,2.56-3.37,3.97-5.95,3.27-6.01,18.93-17.5,18.93-17.5Z"/>
      <path class="cls-1" d="m295.94,0c13.04,2.85,29.49,11.55,36.21,19.4,3.76,4.39,6.54,8.1,11.31,10.61,3.59-6.09,7.32-13.49,12.81-11.49,2.89,1.05,3.1,5.18-1.45,9.07-1.87,1.6-3.72,3.04-5.4,4.61,2.85.69,6.26,1.13,10.5,1.27,17.49.56,41.09,13.62,41.09,13.62-6.34-2.34-33.64-5.72-44.64-3.13-5.41,1.27-9.66,1.92-13.47,1.01-.1,2.08.41,3.35.77,4.13-5.37,1.99-11.4-1.1-14.4-7.61,0,0,2.35-.44,5.21-2-2.14-2.41-4.31-5.67-6.68-10.01-5.51-10.12-31.88-29.47-31.88-29.47Z"/>
    </g>
  </g>
</svg>