<?xml version="1.0" encoding="UTF-8"?>
<svg id="Livello_2" data-name="Livello 2" xmlns="http://www.w3.org/2000/svg" viewBox="0 0 233.11 88.63">
  <defs>
    <style>
      .cls-1 {
        fill: #80afb2;
      }
    </style>
  </defs>
  <g id="_ÎÓÈ_1" data-name="—ÎÓÈ_1">
    <g>
      <path class="cls-1" d="m226.92,79.51c-.88-1.3-2.33-2.26-3.63-3.07-1.43-.89-2.62-1.5-4.27-1.83-1.48-.29-2.94-.46-4.43-.69-1.72-.27-3.62-.35-5.35-.24-.64.04-1.33,0-2.01-.02-.04-.02-.08-.05-.12-.07-2.65-1.16-4.63-3.1-6.82-4.87-1.17-.94-2.21-2.02-3.53-2.78-.71-.41-1.24-.91-2.03-1.16-.8-.26-1.71-.3-2.53-.44-1.25-.2-2.7-.23-3.96-.25-1.63-.03-3.24-.37-4.86-.53-1.49-.15-3.08-.44-4.57-.42-.96.02-1.98-.43-2.96-.23-.01,0-.01.03,0,.03.92-.03,2.02.38,2.91.54,1.18.21,2.42.3,3.62.39,3.2.25,6.35,1.05,9.47,1.68,1.73.35,2.99,1.34,4.46,2.21.55.32,1.15.92,1.56,1.4.47.55,1.22.82,1.66,1.41.65.87,1.78,1.54,2.6,2.27.19.17.39.34.59.51-.33.39-.73.7-1.28.92-.04.01-.89-.02-1.1.02-.24.04-.35.41-.16.57.93.78,1.09,1.95,2.14,2.65.87.57,1.98,1.23,3.05,1.28,2.15.09,4.19-1.29,4.26-3.55.23.01.47.03.7.05,3.26.28,6.52.37,9.7,1.22.85.23,1.62.91,2.39,1.33.9.5,1.81,1.16,2.54,1.89,1.01,1.03,1.94,2.13,2.96,3.14,1.8,1.79,3.27,3.89,5.03,5.72.06.06.17,0,.15-.08-.18-.71-.64-1.31-1.2-1.81-.5-.44-.71-1.06-1.16-1.52-.7-.72-1.2-1.56-1.77-2.39-.73-1.05-1.33-2.23-2.05-3.3Z"/>
      <path class="cls-1" d="m10.81,33.79c2.04-.18,4.11-.02,6.15.11,1.67.11,3.24.65,4.87.96.41-.66,1.19-1.21,1.89-1.25.18-.39.35-.74.43-.99.91-2.65,1.87-4.94,3.77-7.03,1.72-1.9,3.72-2.96,5.92-4.25,1.29-.76,3.93-2.57,5.49-2.15.03,0,.03.04,0,.05-1.77.78-3.49,1.54-4.94,2.87-1.69,1.56-3.8,2.66-5.22,4.49-.58.75-1.25,1.36-1.79,2.15-.73,1.07-1.1,2.14-1.59,3.31-.24.58-.45,1.17-.67,1.76.38-.04.81.09,1.07.31.04.03.07.06.11.1.06-.02.12-.04.18-.05.04,0,.07,0,.1-.02.11-.04.21-.08.32-.1.08-.02.15,0,.21.04.12,0,.25,0,.38.03.08.02.14.11.1.19-.08.17-.21.28-.36.39,0,0,0,0-.01.01-.06.1-.13.2-.18.26-.08.08-.14.16-.21.24.08.71-.31,1.49-.8,2.12-1.02,1.31-2.48,2.03-4.07,2.34-1.87.37-3.79.5-5.65.1-.11-.02-.14-.19-.02-.23.18-.06.36-.12.53-.17-.37-.04-.7-.16-.96-.4-.05-.05-.04-.13.03-.15.43-.2.96-.12,1.45-.09-.28-.06-.56-.14-.86-.24-.09-.03-.08-.16,0-.19,1.14-.37,2.29-.67,3.48-.88.8-.14,1.15-.81,1.58-1.41-1.3-.22-2.55-.56-3.87-.77-2.29-.36-4.7-.11-6.94.49-1.9.5-3.41,1.42-5.2,2.16-.99.41-1.92.53-2.96.73-.76.14-1.81.44-2.57.28-.01,0-.01-.01,0-.02.38-.57,1.23-.69,1.83-.94,1.07-.43,2.35-1.16,3.3-1.82,1.54-1.07,3.8-2.16,5.68-2.32Z"/>
      <path class="cls-1" d="m181.96,17.24c-5.59-3.21-14.29-5.43-19.24-4.81-2.77.35-4.96.77-7.48.12.69-3.34,1.76-7.2-.86-8.26-1.37-.56-2.79.85-2.42,3.71.15,1.18.34,2.29.44,3.4-1.24-.67-2.6-1.62-4.16-2.95-6.43-5.47-19.11-8.45-19.11-8.45,3.03,1.22,13.88,8.86,16.98,13.35,1.52,2.21,2.83,3.82,4.49,4.73-.64.78-1.23,1.07-1.61,1.23,1.28,2.45,4.43,3.3,7.62,1.95,0,0-.7-.92-1.22-2.4,1.55-.17,3.38-.63,5.63-1.42,5.25-1.83,20.95-.2,20.95-.2Z"/>
    </g>
  </g>
</svg>