<svg xmlns="http://www.w3.org/2000/svg" width="56" height="56" viewBox="0 0 56 56" fill="none">
  <rect x="4" y="4" width="48" height="48" rx="24" fill="#4FCB1F"/>
  <path fill-rule="evenodd" clip-rule="evenodd" d="M28.5007 16C28.6849 16 28.8615 16.0732 28.9917 16.2034C29.122 16.3336 29.1951 16.5103 29.1951 16.6944V22.5867C29.416 22.8076 29.6188 23.1312 29.7986 23.536L32.3195 21.668V19.7034C32.3194 19.6094 32.3385 19.5164 32.3755 19.43C32.4125 19.3435 32.4667 19.2655 32.5347 19.2007L34.9653 16.8861C35.0987 16.759 35.277 16.6901 35.4612 16.6945C35.6453 16.699 35.8202 16.7764 35.9473 16.9097C36.0743 17.0431 36.1432 17.2214 36.1388 17.4056C36.1344 17.5897 36.057 17.7646 35.9236 17.8916L33.7084 20.0013V22.0187C33.7083 22.1271 33.6828 22.2341 33.634 22.3309C33.5851 22.4277 33.5143 22.5118 33.4271 22.5763L30.3021 24.8916C30.284 24.9055 30.2646 24.9173 30.2458 24.9291C30.459 25.8561 30.5833 26.9638 30.5833 28.1526C30.5833 28.5985 30.566 29.0332 30.5326 29.4512L34.6903 33.1276C34.7818 33.2085 34.8503 33.3121 34.8889 33.4279C34.9276 33.5437 34.935 33.6677 34.9104 33.7873L34.4111 36.2178L36.4348 37.1699C36.5173 37.2087 36.5914 37.2635 36.6528 37.3309C36.7141 37.3984 36.7616 37.4773 36.7925 37.5632C36.8234 37.649 36.8371 37.7401 36.8328 37.8312C36.8285 37.9223 36.8062 38.0117 36.7674 38.0942C36.7285 38.1767 36.6738 38.2508 36.6063 38.3122C36.5389 38.3736 36.46 38.421 36.3741 38.4519C36.2883 38.4828 36.1972 38.4965 36.1061 38.4922C36.015 38.4879 35.9256 38.4657 35.8431 38.4268L33.325 37.2414C33.1842 37.175 33.0697 37.0632 33.0001 36.9239C32.9304 36.7846 32.9096 36.6259 32.941 36.4734L33.4688 33.9019L30.3049 31.1033C30.2486 31.3815 30.1807 31.6572 30.1014 31.9297L31.5771 33.9297C31.6439 34.0203 31.6876 34.1258 31.7046 34.2371C31.7215 34.3484 31.7111 34.4621 31.6743 34.5685L30.8014 37.106L32.6604 39.9226C32.7613 40.0763 32.7971 40.2637 32.7599 40.4438C32.7228 40.6238 32.6158 40.7818 32.4624 40.8831C32.309 40.9844 32.1217 41.0207 31.9416 40.9841C31.7614 40.9475 31.6031 40.841 31.5014 40.6879L29.4542 37.5859C29.3956 37.4971 29.3582 37.3961 29.3448 37.2907C29.3315 37.1852 29.3425 37.0781 29.3771 36.9775L30.2431 34.4616L29.4576 33.3963C29.1708 33.8179 28.8451 34.0553 28.5 34.0553C28.1549 34.0553 27.8292 33.8172 27.5424 33.3963L26.7576 34.4616L27.6229 36.9775C27.6575 37.0781 27.6685 37.1852 27.6552 37.2907C27.6418 37.3961 27.6044 37.4971 27.5458 37.5859L25.4986 40.6879C25.3971 40.8417 25.2387 40.9489 25.0582 40.9859C24.8777 41.0228 24.6899 40.9866 24.5361 40.8851C24.3823 40.7836 24.2751 40.6252 24.2381 40.4447C24.2012 40.2642 24.2374 40.0764 24.3389 39.9226L26.1986 37.106L25.325 34.5685C25.2883 34.4621 25.278 34.3483 25.2951 34.237C25.3121 34.1257 25.356 34.0202 25.4229 33.9297L26.8986 31.9297C26.8193 31.6572 26.7514 31.3815 26.6951 31.1033L23.5305 33.9019L24.059 36.4734C24.0904 36.6259 24.0696 36.7846 23.9999 36.9239C23.9303 37.0632 23.8158 37.175 23.675 37.2414L21.1569 38.4268C20.9902 38.5053 20.7992 38.5143 20.6259 38.4519C20.4525 38.3896 20.3111 38.2609 20.2326 38.0942C20.1541 37.9275 20.1451 37.7365 20.2075 37.5632C20.2699 37.3898 20.3986 37.2484 20.5652 37.1699L22.5889 36.2178L22.0889 33.7873C22.0644 33.6676 22.0719 33.5436 22.1107 33.4278C22.1495 33.312 22.2181 33.2084 22.3097 33.1276L26.4674 29.4505C26.4334 29.0187 26.4165 28.5858 26.4167 28.1526C26.4167 26.9631 26.541 25.8561 26.7542 24.9291C26.7348 24.9175 26.7161 24.905 26.6979 24.8916L23.5729 22.5763C23.4857 22.5118 23.4149 22.4277 23.366 22.3309C23.3172 22.2341 23.2917 22.1271 23.2916 22.0187V20.0013L21.0764 17.8916C20.943 17.7646 20.8656 17.5897 20.8612 17.4056C20.8568 17.2214 20.9257 17.0431 21.0527 16.9097C21.1798 16.7764 21.3547 16.699 21.5388 16.6945C21.723 16.6901 21.9013 16.759 22.0347 16.8861L24.4653 19.2007C24.5333 19.2655 24.5875 19.3435 24.6245 19.43C24.6615 19.5164 24.6806 19.6094 24.6805 19.7034V21.6687L27.2014 23.5367C27.3819 23.1298 27.5854 22.8062 27.8062 22.5853V16.6944C27.8062 16.5103 27.8794 16.3336 28.0096 16.2034C28.1399 16.0732 28.3165 16 28.5007 16ZM20.7757 29.1943C18.725 29.1943 17.9312 28.6672 17.6486 28.3526C17.635 28.3375 17.6218 28.322 17.609 28.3061L24.5667 27.3721C24.4674 27.5481 24.3523 27.7148 24.2229 27.87C23.6653 28.5374 22.6604 29.1943 20.7757 29.1943ZM16.0749 27.111C15.7624 28.2686 16.2631 30.5832 20.7764 30.5832C24.1666 30.5832 25.6465 28.7533 26.1722 27.1561C26.3472 26.6284 26.4167 26.1249 26.4167 25.7221L16.0749 27.111ZM36.2243 29.1943C38.275 29.1943 39.0688 28.6672 39.3514 28.3526C39.3653 28.3374 39.3785 28.3221 39.391 28.3061L32.4334 27.3721C32.5299 27.5422 32.6438 27.7096 32.7771 27.87C33.3347 28.5374 34.3396 29.1943 36.2243 29.1943ZM40.9251 27.111C41.2376 28.2686 40.7369 30.5832 36.2236 30.5832C32.8334 30.5832 31.3535 28.7533 30.8278 27.1561C30.6721 26.6938 30.5896 26.2099 30.5833 25.7221L40.9251 27.111Z" fill="white"/>
  <rect x="4" y="4" width="48" height="48" rx="24" stroke="#86E760" stroke-width="8"/>
</svg>