<svg xmlns="http://www.w3.org/2000/svg" width="22" height="22" viewBox="0 0 22 22" fill="none">
  <path d="M20.144 15.2206C19.9299 14.9925 19.174 14.3182 17.7844 13.4261C16.3845 12.5262 15.3521 11.9652 15.056 11.8343C15.0299 11.8227 15.0012 11.8185 14.9728 11.822C14.9445 11.8256 14.9177 11.8368 14.8952 11.8544C14.4182 12.2264 13.6151 12.9097 13.5721 12.9467C13.294 13.185 13.294 13.185 13.0663 13.1107C12.666 12.9795 11.4224 12.3191 10.3388 11.233C9.25516 10.1469 8.56077 8.87258 8.42952 8.47267C8.35446 8.24463 8.35446 8.24463 8.59358 7.96654C8.6305 7.92348 9.31423 7.12039 9.68624 6.64379C9.70388 6.62134 9.71508 6.59452 9.71862 6.56619C9.72216 6.53786 9.71791 6.5091 9.70634 6.48301C9.5755 6.18646 9.0144 5.15451 8.11452 3.75465C7.2212 2.36545 6.54772 1.60953 6.31968 1.39543C6.29875 1.37568 6.27288 1.36194 6.2448 1.35566C6.21672 1.34938 6.18747 1.35079 6.16013 1.35975C5.36298 1.63368 4.59385 1.98322 3.86325 2.40359C3.15796 2.8136 2.49023 3.28505 1.86784 3.81248C1.84611 3.83095 1.82983 3.85499 1.82072 3.88201C1.81162 3.90903 1.81004 3.93803 1.81616 3.96588C1.90188 4.36537 2.31163 6.03307 3.58311 8.34307C4.88044 10.7006 5.7795 11.9086 7.68468 13.8072C9.58985 15.7058 10.8359 16.659 13.1959 17.9563C15.5059 19.2278 17.1745 19.6379 17.5731 19.7229C17.601 19.7289 17.6301 19.7273 17.6572 19.7182C17.6842 19.7091 17.7084 19.6929 17.7269 19.6712C18.2543 19.0488 18.7256 18.3811 19.1354 17.6758C19.5557 16.9451 19.9052 16.176 20.1793 15.3789C20.188 15.3517 20.1894 15.3228 20.1832 15.2949C20.177 15.2671 20.1635 15.2414 20.144 15.2206Z" fill="white"/>
</svg>