<?xml version="1.0" encoding="UTF-8"?>
<svg id="Livello_2" data-name="Livello 2" xmlns="http://www.w3.org/2000/svg" viewBox="0 0 344.87 47.01">
  <defs>
    <style>
      .cls-1 {
        fill: #282c62;
      }
    </style>
  </defs>
  <g id="_ÎÓÈ_1" data-name="—ÎÓÈ_1">
    <g>
      <path class="cls-1" d="m197.15,36.34s-5.25,3.12-6.18,6.69c-.12.47-.49.83-.97.94-1.51.35-4.55,1.27-4.65,3.04,0,0,3.46-1.47,6.05-1.82.59-.08,1.02-.54,1.11-1.12.17-1.19,1.08-3.53,4.64-7.73Z"/>
      <path class="cls-1" d="m28.88,12.92c.5-.66,1.29-1.13,2-1.52.78-.43,1.42-.72,2.31-.85.79-.11,1.57-.16,2.36-.24.92-.09,1.92-.09,2.83.02.34.04.7.03,1.06.05.02-.01.04-.02.07-.03,1.43-.54,2.53-1.51,3.74-2.39.64-.47,1.22-1.01,1.94-1.37.39-.19.68-.45,1.1-.56.43-.11.91-.11,1.35-.16.67-.07,1.43-.05,2.1-.02.86.03,1.72-.1,2.58-.15.79-.04,1.64-.15,2.43-.1.51.03,1.06-.17,1.57-.04,0,0,0,.01,0,.01-.48-.04-1.07.14-1.55.21-.63.08-1.29.09-1.93.11-1.7.04-3.38.38-5.05.63-.92.14-1.61.63-2.41,1.05-.3.16-.63.46-.86.7-.26.28-.66.4-.92.7-.37.44-.98.77-1.44,1.13-.1.08-.21.17-.32.26.16.22.37.39.65.52.02,0,.47.02.58.04.13.03.18.23.07.31-.51.39-.63,1-1.2,1.34-.48.28-1.08.6-1.65.59-1.14-.01-2.18-.79-2.16-1.99-.12,0-.25,0-.37,0-1.73.06-3.45.02-5.16.38-.45.1-.88.44-1.3.64-.49.24-.99.56-1.39.93-.57.52-1.08,1.07-1.65,1.58-1,.9-1.84,1.97-2.82,2.89-.03.03-.09,0-.08-.05.11-.37.37-.68.68-.92.27-.22.4-.54.65-.77.39-.36.68-.79,1-1.21.41-.54.76-1.14,1.17-1.69Z"/>
      <path class="cls-1" d="m168.61,26.15c1.47-1,4.86-2.52,4.62-2.66-.24-.14-4.78.98-6.14,2.48-1.02,1.12-2.5,4.1-3.18,5.52-.9-2.11-2.65-5.43-3.97-6.37-1.98-1.4-10.92-1.08-10.92-1.08.63.88,7.01,1.94,8.94,2.72,1.59.64,2.92,4.88,3.62,6.54-.94.64-1.51,1.19-.87,1.4,1.14.39,3.21.23,4.39-.24.73-.29,2.73-2.09,2.36-2.68-.15-.24-.68-.34-1.36-.3.56-1.45,1.39-4.56,2.52-5.33Z"/>
      <path class="cls-1" d="m344.8,13.85c-.44.03-3.41.5-4.87.85-1.46.35-2.98,2.36-3.33,2.45-.35.09-2.04-.12-3.5-.23-1.46-.12-4.26,1.49-4.26,1.49,0,.61,2.83-.32,3.82-.38.99-.06,2.54.26,2.86.53.32.26.93.61,1.46.58.53-.03,2.01-1.08,2.16-1.28.15-.2-.61-.29-.61-.29l.7-.88c.7-.88,2.25-1.28,3.27-1.55s2.74-1.31,2.3-1.28Z"/>
      <path class="cls-1" d="m260.44,28.54c.63.04,4.89.71,6.98,1.21,2.09.5,4.26,3.39,4.77,3.51.5.13,2.93-.17,5.02-.33,2.09-.17,6.1,2.13,6.1,2.13,0,.88-4.05-.46-5.48-.54-1.42-.08-3.64.38-4.1.75-.46.38-1.34.88-2.09.84-.75-.04-2.88-1.55-3.09-1.84-.21-.29.88-.42.88-.42l-1-1.25c-1-1.25-3.22-1.84-4.68-2.22-1.46-.38-3.93-1.88-3.3-1.84Z"/>
      <path class="cls-1" d="m17.14.07c-.53-.14-1.13-.05-1.66.04-.58.1-1.03.21-1.54.51-.45.27-.87.56-1.31.84-.51.33-1.02.74-1.45,1.17-.16.16-.35.31-.53.46-.02,0-.03,0-.05.01-.96.31-1.92.26-2.9.31-.52.02-1.04-.02-1.56.09-.28.06-.53.05-.8.17-.27.12-.52.32-.76.47-.37.24-.76.57-1.09.85-.43.37-.93.65-1.39.99-.42.31-.9.6-1.29.95-.25.23-.62.35-.82.62,0,0,0,0,0,0,.23-.22.61-.37.88-.53.36-.22.7-.48,1.03-.74.89-.68,1.9-1.19,2.86-1.75.53-.31,1.09-.34,1.67-.45.22-.04.51-.03.73,0,.25.03.51-.07.76-.02.37.08.82,0,1.2,0,.09,0,.18,0,.27,0,0,.18-.03.35-.12.53,0,.01-.24.2-.28.26-.05.07,0,.19.09.19.42-.01.74.26,1.17.2.36-.05.8-.13,1.09-.37.58-.47.79-1.3.29-1.91.06-.05.13-.1.19-.15.91-.68,1.78-1.41,2.81-1.92.27-.14.63-.14.93-.21.35-.08.74-.12,1.1-.09.5.03,1,.11,1.5.14.88.05,1.75.26,2.63.33.03,0,.05-.04.02-.06-.21-.14-.47-.19-.73-.19-.23,0-.43-.11-.65-.13-.35-.03-.67-.13-1.01-.21-.43-.11-.86-.27-1.3-.39Z"/>
    </g>
  </g>
</svg>