<svg width="624" height="347" viewBox="0 0 624 347" fill="none" xmlns="http://www.w3.org/2000/svg">
<path fill-rule="evenodd" clip-rule="evenodd" d="M104.7 115.8C60.7 115.8 25.1 151.4 25.1 195.4C25.1 210.2 29.2 224.1 36.2 236H19.6C8.89998 236 0.0999756 244.8 0.0999756 255.5C0.0999756 266.2 8.89998 275 19.6 275H52.8H104.8H276.8H463.6H509.6H509.7H604.2C614.9 275 623.7 266.2 623.7 255.5C623.7 244.8 614.9 236 604.2 236H578.2C585.3 224.1 589.3 210.2 589.3 195.4C589.3 151.4 553.7 115.8 509.7 115.8C497.2 115.8 485.3 118.7 474.8 123.9C472.5 103.1 454.9 87 433.6 87C423.9 87 414.9 90.4 407.8 96C390.1 40.5 338.2 0.299988 276.8 0.299988C205.5 0.299988 146.9 54.6 140.1 124.1C129.3 118.7 117.4 115.8 104.7 115.8Z" fill="#D7E5F5"/>
<path fill-rule="evenodd" clip-rule="evenodd" d="M567.7 299.2H568.3C581.3 299.2 591.9 309.8 591.9 322.8C591.9 335.8 581.3 346.4 568.3 346.4H567.7C554.7 346.4 544.1 335.8 544.1 322.8C544.1 309.8 554.7 299.2 567.7 299.2ZM68.6 299.2H91C97.8 299.2 103.4 293.6 103.4 286.8C103.4 281.3 100.7 276.7 95.4 275H90.7C83.1 275 76.9 268.8 76.9 261.2C76.9 253.6 83.1 247.4 90.7 247.4H102.5C97.5 239 94.6 229.1 94.6 218.6C94.6 187.4 119.9 162.1 151.1 162.1C160.1 162.1 168.6 164.2 176.1 167.9C181 118.5 222.6 80 273.2 80C316.8 80 353.7 108.6 366.2 148C371.2 144 377.6 141.6 384.5 141.6C399.7 141.6 412.2 153.1 413.8 167.8C421.3 164.1 429.7 162.1 438.6 162.1C469.8 162.1 495.1 187.4 495.1 218.6C495.1 229.1 492.2 239 487.2 247.4H505.7C513.3 247.4 519.5 253.6 519.5 261.2C519.5 268.8 513.3 275 505.7 275H453C448.1 276.7 444.5 281.3 444.5 286.8C444.5 293.6 450.3 299.2 456.9 299.2H491.3C504.3 299.2 515 309.8 515 322.8C515 335.8 504.4 346.4 491.3 346.4H68.6C55.6 346.4 44.9 335.8 44.9 322.8C44.9 309.8 55.6 299.2 68.6 299.2Z" fill="white"/>
</svg>
