<svg xmlns="http://www.w3.org/2000/svg" width="26" height="23" viewBox="0 0 26 23" fill="none">
  <g clip-path="url(#clip0_130_1339)">
    <path d="M10.6562 4.3125C11.2779 4.3125 11.874 4.08532 12.3135 3.68095C12.7531 3.27657 13 2.72812 13 2.15625C13 1.58438 12.7531 1.03593 12.3135 0.631551C11.874 0.227176 11.2779 0 10.6562 0C10.0346 0 9.43851 0.227176 8.99897 0.631551C8.55943 1.03593 8.3125 1.58438 8.3125 2.15625C8.3125 2.72812 8.55943 3.27657 8.99897 3.68095C9.43851 4.08532 10.0346 4.3125 10.6562 4.3125ZM16.125 11.5C16.9538 11.5 17.7487 11.1971 18.3347 10.6579C18.9208 10.1188 19.25 9.3875 19.25 8.625C19.25 7.8625 18.9208 7.13124 18.3347 6.59207C17.7487 6.0529 16.9538 5.75 16.125 5.75C15.2962 5.75 14.5013 6.0529 13.9153 6.59207C13.3292 7.13124 13 7.8625 13 8.625C13 9.3875 13.3292 10.1188 13.9153 10.6579C14.5013 11.1971 15.2962 11.5 16.125 11.5ZM20.8125 1.4375C20.8125 1.05625 20.6479 0.690618 20.3549 0.421034C20.0618 0.15145 19.6644 0 19.25 0C18.8356 0 18.4382 0.15145 18.1451 0.421034C17.8521 0.690618 17.6875 1.05625 17.6875 1.4375C17.6875 1.81875 17.8521 2.18438 18.1451 2.45397C18.4382 2.72355 18.8356 2.875 19.25 2.875C19.6644 2.875 20.0618 2.72355 20.3549 2.45397C20.6479 2.18438 20.8125 1.81875 20.8125 1.4375ZM20.8125 8.625C20.8125 9.86484 20.2412 10.9834 19.3281 11.774C21.1104 12.385 22.375 13.9617 22.375 15.8125C22.375 18.1934 20.2754 20.125 17.6875 20.125H8.3125C5.72461 20.125 3.625 18.1934 3.625 15.8125C3.625 13.4316 5.72461 11.5 8.3125 11.5H12.6289C11.8867 10.7363 11.4375 9.73008 11.4375 8.625H5.1875C2.59961 8.625 0.5 10.5566 0.5 12.9375V18.6875C0.5 21.0684 2.59961 23 5.1875 23H20.8125C23.4004 23 25.5 21.0684 25.5 18.6875V12.9375C25.5 10.5566 23.4004 8.625 20.8125 8.625ZM8.3125 12.9375C6.58887 12.9375 5.1875 14.2268 5.1875 15.8125C5.1875 17.3982 6.58887 18.6875 8.3125 18.6875H17.6875C19.4111 18.6875 20.8125 17.3982 20.8125 15.8125C20.8125 14.2268 19.4111 12.9375 17.6875 12.9375H8.3125Z" fill="black"/>
  </g>
  <defs>
    <clipPath id="clip0_130_1339">
      <rect width="25" height="23" fill="white" transform="translate(0.5)"/>
    </clipPath>
  </defs>
</svg>