<svg xmlns="http://www.w3.org/2000/svg" width="25" height="24" viewBox="0 0 25 24" fill="none">
  <path d="M18.5 21.5H8.5V8.5L15.5 1.5L16.75 2.75C16.8667 2.86667 16.9627 3.025 17.038 3.225C17.1133 3.425 17.1507 3.61667 17.15 3.8V4.15L16.05 8.5H21.5C22.0333 8.5 22.5 8.7 22.9 9.1C23.3 9.5 23.5 9.96667 23.5 10.5V12.5C23.5 12.6167 23.4877 12.7417 23.463 12.875C23.4383 13.0083 23.4007 13.1333 23.35 13.25L20.35 20.3C20.2 20.6333 19.95 20.9167 19.6 21.15C19.25 21.3833 18.8833 21.5 18.5 21.5ZM6.5 8.5V21.5H2.5V8.5H6.5Z" fill="black"/>
</svg>