<svg xmlns="http://www.w3.org/2000/svg" width="27" height="26" viewBox="0 0 27 26" fill="none">
  <path d="M13 2C7.20127 2 2.5 6.70127 2.5 12.5C2.5 18.2987 7.20127 23 13 23C18.7987 23 23.5 18.2987 23.5 12.5C23.5 6.70127 18.7987 2 13 2ZM17.8462 14.1154H13C12.7858 14.1154 12.5803 14.0303 12.4289 13.8788C12.2774 13.7273 12.1923 13.5219 12.1923 13.3077V6.03846C12.1923 5.82425 12.2774 5.61881 12.4289 5.46734C12.5803 5.31587 12.7858 5.23077 13 5.23077C13.2142 5.23077 13.4197 5.31587 13.5711 5.46734C13.7226 5.61881 13.8077 5.82425 13.8077 6.03846V12.5H17.8462C18.0604 12.5 18.2658 12.5851 18.4173 12.7366C18.5688 12.888 18.6538 13.0935 18.6538 13.3077C18.6538 13.5219 18.5688 13.7273 18.4173 13.8788C18.2658 14.0303 18.0604 14.1154 17.8462 14.1154Z" fill="black"/>
</svg>