<svg xmlns="http://www.w3.org/2000/svg" width="27" height="36" viewBox="0 0 27 36" fill="none">
  <path d="M2.66087 7.45688L3.71739 12.1127L2.66087 16.7484L6.59348 19.2585L9 23.3273L13.5 22.2342L18 23.3273L20.4065 19.2585L24.3391 16.7484L23.2826 12.1127L24.3391 7.45688L20.4261 4.94676L18 0.87793L13.5 1.99129L9.01957 0.898173L6.57391 4.94676L2.66087 7.45688ZM13.5196 20.2909C11.444 20.2909 9.45336 19.4378 7.98569 17.9193C6.51801 16.4008 5.69348 14.3412 5.69348 12.1937C5.69348 10.0462 6.51801 7.98667 7.98569 6.46816C9.45336 4.94965 11.444 4.09655 13.5196 4.09655C17.8239 4.09655 21.3261 7.72003 21.3261 12.1735C21.3261 16.6674 17.8239 20.2909 13.5196 20.2909ZM13.4804 18.2666C10.2326 18.2666 7.63044 15.554 7.63044 12.1937C7.63044 8.85364 10.2326 6.12084 13.4804 6.12084C16.7283 6.12084 19.3696 8.85364 19.3696 12.1937C19.3696 15.554 16.7283 18.2666 13.4804 18.2666ZM20.9935 20.4933L18.4891 25.0277L14.4196 24.0763L19.3696 35.8779L22.1087 31.4245H27L20.9935 20.4933ZM5.92826 20.635L8.37391 25.1897L12.5413 24.1573L7.63044 35.8779L4.8913 31.4245H0L5.92826 20.635Z" fill="#378E15"/>
</svg>