<svg xmlns="http://www.w3.org/2000/svg" width="28" height="35" viewBox="0 0 28 35" fill="none">
  <path d="M3.16087 6.57895L4.21739 11.2348L3.16087 15.8704L7.09348 18.3806L9.5 22.4494L14 21.3563L18.5 22.4494L20.9065 18.3806L24.8391 15.8704L23.7826 11.2348L24.8391 6.57895L20.9261 4.06883L18.5 0L14 1.11336L9.51957 0.0202429L7.07391 4.06883L3.16087 6.57895ZM14.0196 19.413C11.944 19.413 9.95336 18.5599 8.48569 17.0414C7.01801 15.5228 6.19348 13.4633 6.19348 11.3158C6.19348 9.16829 7.01801 7.10874 8.48569 5.59023C9.95336 4.07172 11.944 3.21862 14.0196 3.21862C18.3239 3.21862 21.8261 6.8421 21.8261 11.2955C21.8261 15.7895 18.3239 19.413 14.0196 19.413ZM13.9804 17.3887C10.7326 17.3887 8.13044 14.6761 8.13044 11.3158C8.13044 7.97571 10.7326 5.24292 13.9804 5.24292C17.2283 5.24292 19.8696 7.97571 19.8696 11.3158C19.8696 14.6761 17.2283 17.3887 13.9804 17.3887ZM21.4935 19.6154L18.9891 24.1498L14.9196 23.1984L19.8696 35L22.6087 30.5466H27.5L21.4935 19.6154ZM6.42826 19.7571L8.87391 24.3117L13.0413 23.2794L8.13044 35L5.3913 30.5466H0.5L6.42826 19.7571Z" fill="white"/>
</svg>