<svg xmlns="http://www.w3.org/2000/svg" width="25" height="25" viewBox="0 0 25 25" fill="none">
  <path d="M7.24444 11.7143C7.73333 9.14286 9.93333 7.21429 12.5 7.21429C14.3333 7.21429 15.8 8.11429 16.7778 9.52857L18.8556 6.95714C17.3889 5.15714 15.0667 4 12.5 4C8.22222 4 4.67778 7.34286 4.06667 11.7143H1.5L5.77778 16.8571L10.0556 11.7143H7.24444ZM19.2222 9.14286L14.9444 14.2857H17.7556C17.1444 16.8571 15.0667 18.7857 12.5 18.7857C10.6667 18.7857 9.2 17.8857 8.22222 16.4714L6.14444 18.9143C7.61111 20.8429 9.93333 22 12.5 22C16.7778 22 20.3222 18.6571 20.9333 14.2857H23.5L19.2222 9.14286Z" fill="black"/>
</svg>